<mxfile host="app.diagrams.net" modified="2023-08-27T02:37:06.098Z" agent="Mozilla/5.0 (Macintosh; Intel Mac OS X 10_15_7) AppleWebKit/537.36 (KHTML, like Gecko) Chrome/116.0.0.0 Safari/537.36" etag="RFLmwV92M0vDKK8h4an6" version="21.6.9" type="device">
  <diagram name="Page-1" id="87uDsZAhMkL4IKy_LtBg">
    <mxGraphModel dx="2180" dy="829" grid="1" gridSize="10" guides="1" tooltips="1" connect="1" arrows="1" fold="1" page="1" pageScale="1" pageWidth="1169" pageHeight="827" math="0" shadow="0">
      <root>
        <mxCell id="0" />
        <mxCell id="1" parent="0" />
        <mxCell id="itqFsDrFxRbD-E_QiVcL-7" style="edgeStyle=orthogonalEdgeStyle;rounded=0;orthogonalLoop=1;jettySize=auto;html=1;entryX=0.5;entryY=0;entryDx=0;entryDy=0;startArrow=classic;startFill=1;" edge="1" parent="1" source="itqFsDrFxRbD-E_QiVcL-1" target="itqFsDrFxRbD-E_QiVcL-3">
          <mxGeometry relative="1" as="geometry" />
        </mxCell>
        <mxCell id="itqFsDrFxRbD-E_QiVcL-1" value="MongoDB" style="shape=datastore;whiteSpace=wrap;html=1;" vertex="1" parent="1">
          <mxGeometry x="570" y="60" width="60" height="60" as="geometry" />
        </mxCell>
        <mxCell id="itqFsDrFxRbD-E_QiVcL-2" value="Mongodb server running on a laptop. Mongo isn&#39;t lightweight but not a concern for now as running locally on a laptop." style="text;html=1;strokeColor=none;fillColor=none;align=center;verticalAlign=middle;whiteSpace=wrap;rounded=0;" vertex="1" parent="1">
          <mxGeometry x="650" y="40" width="180" height="90" as="geometry" />
        </mxCell>
        <mxCell id="itqFsDrFxRbD-E_QiVcL-18" style="rounded=0;orthogonalLoop=1;jettySize=auto;html=1;exitX=0.5;exitY=1;exitDx=0;exitDy=0;entryX=0.75;entryY=0;entryDx=0;entryDy=0;" edge="1" parent="1" source="itqFsDrFxRbD-E_QiVcL-3" target="itqFsDrFxRbD-E_QiVcL-15">
          <mxGeometry relative="1" as="geometry" />
        </mxCell>
        <mxCell id="itqFsDrFxRbD-E_QiVcL-20" value="Returns JSON data for&lt;br&gt;whiteboard program to handle" style="edgeLabel;html=1;align=center;verticalAlign=middle;resizable=0;points=[];" vertex="1" connectable="0" parent="itqFsDrFxRbD-E_QiVcL-18">
          <mxGeometry x="0.1468" y="1" relative="1" as="geometry">
            <mxPoint x="34" y="59" as="offset" />
          </mxGeometry>
        </mxCell>
        <mxCell id="itqFsDrFxRbD-E_QiVcL-28" style="rounded=0;orthogonalLoop=1;jettySize=auto;html=1;exitX=1;exitY=0.25;exitDx=0;exitDy=0;entryX=0;entryY=0.25;entryDx=0;entryDy=0;" edge="1" parent="1" source="itqFsDrFxRbD-E_QiVcL-3" target="itqFsDrFxRbD-E_QiVcL-24">
          <mxGeometry relative="1" as="geometry" />
        </mxCell>
        <mxCell id="itqFsDrFxRbD-E_QiVcL-29" value="Returns user hashes of currently available family members" style="edgeLabel;html=1;align=center;verticalAlign=middle;resizable=0;points=[];" vertex="1" connectable="0" parent="itqFsDrFxRbD-E_QiVcL-28">
          <mxGeometry x="-0.0607" y="1" relative="1" as="geometry">
            <mxPoint x="130" y="-15" as="offset" />
          </mxGeometry>
        </mxCell>
        <mxCell id="itqFsDrFxRbD-E_QiVcL-3" value="DB Microservice API" style="rounded=1;whiteSpace=wrap;html=1;" vertex="1" parent="1">
          <mxGeometry x="540" y="299" width="120" height="60" as="geometry" />
        </mxCell>
        <mxCell id="itqFsDrFxRbD-E_QiVcL-4" value="DB API that handles CRUD operations on the database. Will mean that all services only need to make HTTP calls to API rather than connect directly to DB" style="text;html=1;strokeColor=none;fillColor=none;align=center;verticalAlign=middle;whiteSpace=wrap;rounded=0;" vertex="1" parent="1">
          <mxGeometry x="405" y="194" width="180" height="90" as="geometry" />
        </mxCell>
        <mxCell id="itqFsDrFxRbD-E_QiVcL-8" value="Could even dockerise this and run in a container?" style="text;html=1;strokeColor=none;fillColor=none;align=center;verticalAlign=middle;whiteSpace=wrap;rounded=0;" vertex="1" parent="1">
          <mxGeometry x="620" y="194" width="180" height="90" as="geometry" />
        </mxCell>
        <mxCell id="itqFsDrFxRbD-E_QiVcL-13" style="rounded=0;orthogonalLoop=1;jettySize=auto;html=1;entryX=0;entryY=1;entryDx=0;entryDy=0;" edge="1" parent="1" source="itqFsDrFxRbD-E_QiVcL-9" target="itqFsDrFxRbD-E_QiVcL-3">
          <mxGeometry relative="1" as="geometry" />
        </mxCell>
        <mxCell id="itqFsDrFxRbD-E_QiVcL-14" value="Updating an individual&#39;s calendar.&lt;br&gt;&lt;br&gt;Do a POST call to localhost:80/calendar/{user_hash}&lt;br&gt;with calendar data in request body." style="edgeLabel;html=1;align=center;verticalAlign=middle;resizable=0;points=[];" vertex="1" connectable="0" parent="itqFsDrFxRbD-E_QiVcL-13">
          <mxGeometry x="-0.1317" y="1" relative="1" as="geometry">
            <mxPoint x="-118" y="-47" as="offset" />
          </mxGeometry>
        </mxCell>
        <mxCell id="itqFsDrFxRbD-E_QiVcL-9" value="Individual whiteboard" style="rounded=1;whiteSpace=wrap;html=1;" vertex="1" parent="1">
          <mxGeometry x="40" y="389" width="120" height="60" as="geometry" />
        </mxCell>
        <mxCell id="itqFsDrFxRbD-E_QiVcL-17" style="rounded=0;orthogonalLoop=1;jettySize=auto;html=1;exitX=0.25;exitY=0;exitDx=0;exitDy=0;entryX=0.25;entryY=1;entryDx=0;entryDy=0;" edge="1" parent="1" source="itqFsDrFxRbD-E_QiVcL-15" target="itqFsDrFxRbD-E_QiVcL-3">
          <mxGeometry relative="1" as="geometry" />
        </mxCell>
        <mxCell id="itqFsDrFxRbD-E_QiVcL-19" value="Get everyone&#39;s calendar&lt;br&gt;&lt;br&gt;GET call to localhost:80/calendar" style="edgeLabel;html=1;align=center;verticalAlign=middle;resizable=0;points=[];" vertex="1" connectable="0" parent="itqFsDrFxRbD-E_QiVcL-17">
          <mxGeometry x="-0.0692" y="2" relative="1" as="geometry">
            <mxPoint x="-90" as="offset" />
          </mxGeometry>
        </mxCell>
        <mxCell id="itqFsDrFxRbD-E_QiVcL-15" value="Family Whiteboard" style="rounded=1;whiteSpace=wrap;html=1;" vertex="1" parent="1">
          <mxGeometry x="310" y="640" width="120" height="60" as="geometry" />
        </mxCell>
        <mxCell id="itqFsDrFxRbD-E_QiVcL-22" style="rounded=0;orthogonalLoop=1;jettySize=auto;html=1;exitX=0.25;exitY=0;exitDx=0;exitDy=0;entryX=0.646;entryY=1;entryDx=0;entryDy=0;entryPerimeter=0;" edge="1" parent="1" source="itqFsDrFxRbD-E_QiVcL-21" target="itqFsDrFxRbD-E_QiVcL-3">
          <mxGeometry relative="1" as="geometry" />
        </mxCell>
        <mxCell id="itqFsDrFxRbD-E_QiVcL-23" value="Create family event&lt;br&gt;&lt;br&gt;POST call to localhost:80/calendar&lt;br&gt;with calendar data in request body" style="edgeLabel;html=1;align=center;verticalAlign=middle;resizable=0;points=[];" vertex="1" connectable="0" parent="itqFsDrFxRbD-E_QiVcL-22">
          <mxGeometry x="-0.0732" y="1" relative="1" as="geometry">
            <mxPoint x="-19" y="-10" as="offset" />
          </mxGeometry>
        </mxCell>
        <mxCell id="itqFsDrFxRbD-E_QiVcL-21" value="Family Whiteboard" style="rounded=1;whiteSpace=wrap;html=1;" vertex="1" parent="1">
          <mxGeometry x="760" y="640" width="120" height="60" as="geometry" />
        </mxCell>
        <mxCell id="itqFsDrFxRbD-E_QiVcL-25" style="rounded=0;orthogonalLoop=1;jettySize=auto;html=1;exitX=0;exitY=0.5;exitDx=0;exitDy=0;entryX=1.013;entryY=0.686;entryDx=0;entryDy=0;entryPerimeter=0;" edge="1" parent="1" source="itqFsDrFxRbD-E_QiVcL-24" target="itqFsDrFxRbD-E_QiVcL-3">
          <mxGeometry relative="1" as="geometry" />
        </mxCell>
        <mxCell id="itqFsDrFxRbD-E_QiVcL-26" value="Get current available family members&lt;br&gt;&lt;br&gt;GET call to localhost:80/calendar?available=y" style="edgeLabel;html=1;align=center;verticalAlign=middle;resizable=0;points=[];" vertex="1" connectable="0" parent="itqFsDrFxRbD-E_QiVcL-25">
          <mxGeometry x="0.0817" relative="1" as="geometry">
            <mxPoint y="24" as="offset" />
          </mxGeometry>
        </mxCell>
        <mxCell id="itqFsDrFxRbD-E_QiVcL-24" value="Figurine display" style="rounded=1;whiteSpace=wrap;html=1;" vertex="1" parent="1">
          <mxGeometry x="1000" y="389" width="120" height="60" as="geometry" />
        </mxCell>
      </root>
    </mxGraphModel>
  </diagram>
</mxfile>
